<svg width="360" height="159" viewBox="0 0 360 159" fill="none" xmlns="http://www.w3.org/2000/svg">
<mask id="mask0_963_73" style="mask-type:alpha" maskUnits="userSpaceOnUse" x="0" y="0" width="360" height="159">
<rect width="360" height="158.721" fill="#3F51B5"/>
</mask>
<g mask="url(#mask0_963_73)">
<rect width="360" height="158.721" fill="#3F51B5"/>
<path d="M280.671 120.35C280.671 120.35 281.341 115.909 281.676 114.99C282.174 113.273 292.842 114.741 292.842 114.741C292.842 114.741 293.177 108.454 293.933 107.114C294.689 105.774 302.522 105.268 306.997 106.255C297.549 95.0895 280.766 92.7533 270.476 103.077C263.991 109.579 268.715 126.199 270.639 127.29C270.725 125.194 270.811 121.424 271.309 120.754C272.288 119.405 280.671 120.35 280.671 120.35Z" fill="#3D9CFB"/>
<path d="M253.607 65.4572C259.388 67.8793 258.761 56.9883 268.518 58.2509C270.614 58.2509 277.82 60.5099 283.12 62.3565L283.798 47.6949C283.798 47.6949 277.09 45.8483 274.917 45.0151C269.325 42.9452 270.116 33.9352 265.469 31.7793C262.703 30.6026 253.238 27.7596 246.788 25.8271C240.337 23.8945 238.319 26.686 238.319 26.686C238.319 26.686 250.868 28.7646 251.555 35.0604C252.414 42.7905 250.696 57.1773 250.55 64.3835C252.018 64.8645 253.109 65.2854 253.607 65.4572Z" fill="#3D9CFB"/>
<path d="M309.488 91.1473H305.966C304.515 76.6404 304.128 73.1102 299.095 71.1262C295.917 69.8636 273.465 63.499 273.465 63.499C268.939 61.8242 265.005 66.1788 262.067 68.9445C261.24 69.6862 260.234 70.1997 259.148 70.4346C258.063 70.6696 256.934 70.6178 255.875 70.2844C255.875 70.2844 230.743 61.2401 221.862 58.8953C215.162 57.1775 214.905 60.991 215.162 64.4267C215.42 67.8623 215.325 67.6046 215.832 75.7299C223.7 75.7299 233.586 78.8306 234.179 95.3388C240.191 93.7412 247.998 98.6886 246.152 108.575C255.033 112.869 251.099 124.739 251.099 124.739C251.099 124.739 256.622 126.835 259.387 127.591C249.338 98.1818 290.386 73.8059 318.867 103.464L322.474 88.5448L309.239 84.5251L309.488 91.1473Z" fill="#3D9CFB"/>
<path d="M296.75 136.575C293.821 135.905 291.597 135.656 292.232 132.641L288.96 132.804C287.62 134.402 280.001 133.895 280.748 130.794L276.986 131.043C275.81 131.902 271.833 130.545 271.833 130.545C282.054 148.05 304.472 143.274 308.861 134.402C297.154 136.412 302.762 137.906 296.75 136.575Z" fill="#3D9CFB"/>
<path d="M215.832 50.4607C220.127 50.4607 222.283 46.6901 225.211 46.6042C227.556 46.5183 230.365 50.0398 233.337 49.9539C235.432 49.868 238.782 46.6901 240.792 44.5084C240.208 47.6349 243.163 47.9441 242.304 43.0826C242.132 42.1636 242.381 41.5796 240.629 41.8286C235.235 42.4642 236.558 44.4741 239.289 43.7526C237.271 45.8483 235.261 48.0471 233.423 48.279C230.485 48.614 227.221 42.4986 221.398 46.441C219.139 47.9441 217.464 48.8631 216.244 48.7858C212.388 48.614 210.378 45.1011 207.363 45.5134C205.431 45.771 201.411 49.7048 199.315 52.4705C197.22 55.2362 199.152 55.3994 200.174 54.0595C201.196 52.7196 206.041 47.2741 207.458 47.1109C209.141 46.8533 212.225 50.4607 215.832 50.4607Z" fill="#3D9CFB"/>
<path d="M214.406 144.116C220.187 145.293 221.441 135.991 215.66 135.407C209.631 134.814 209.21 143.025 214.406 144.116Z" fill="#3D9CFB"/>
<path d="M214.569 145.035C211.134 144.537 207.956 146.461 207.363 149.811C206.616 153.916 216.322 155.024 219.68 154.586C222.884 154.174 220.9 145.963 214.569 145.035Z" fill="#3D9CFB"/>
<path d="M235.346 151.657C233.508 154.835 232.83 151.151 231.576 151.572C230.322 151.992 229.145 155.342 228.561 155.591C227.977 155.84 226.843 153.332 225.632 153.873C224.421 154.415 221.441 158.649 223.115 158.649C224.035 158.649 225.297 156.132 225.881 155.797C226.465 155.462 227.221 157.644 228.81 157.223C229.987 156.888 230.906 153.959 231.49 153.453C232.074 152.946 232.83 155.17 234.341 154.629C235.1 154.369 235.73 153.828 236.102 153.118C236.961 151.7 237.94 150.541 237.94 149.347C237.94 148.153 236.858 149.055 235.346 151.657Z" fill="#3D9CFB"/>
<path d="M236.626 133.895C234.539 133.311 222.222 129.292 213.676 127.196C208.145 125.856 205.465 125.478 203.876 126.947C201.445 129.12 201.445 130.709 202.622 154.166C202.699 156.261 203.369 159.199 206.47 160.281C214.26 162.858 229.927 167.822 235.793 169.162C241.659 170.502 244.082 169.583 244.082 164.808C244.082 160.032 244.082 146.633 243.832 142.862C243.558 138.671 243.644 135.905 236.626 133.895ZM242.158 164.722C241.994 166.903 241.737 168.071 236.712 167.152C227.917 165.435 213.522 160.539 207.312 158.357C205.714 157.773 204.967 156.511 204.795 154.003C204.374 148.471 204.297 133.311 204.374 131.13C204.451 128.948 205.233 127.866 207.312 127.952C213.839 128.287 231.937 134.565 236.042 135.819C241.909 137.666 241.659 139.513 241.909 143.026C242.132 146.71 242.553 158.357 242.132 164.722H242.158Z" fill="#E0E0E0"/>
<path d="M239.203 130.211C237.485 129.876 237.485 131.13 239.624 131.8C242.974 132.891 247.242 135.57 247.354 140.432C247.44 144.031 247.603 160.281 247.517 162.712C247.431 165.143 249.115 164.43 249.115 161.372C249.192 156.682 249.45 144.031 249.029 139.762C248.419 133.56 243.137 130.881 239.203 130.211Z" fill="#E0E0E0"/>
<path d="M233.92 146.212C230.816 145.261 227.662 144.478 224.472 143.867C223.613 143.867 223.218 144.787 224.137 145.542C225.314 146.461 232.177 147.801 233.774 147.801C235.372 147.801 235.681 146.796 233.92 146.212Z" fill="#E0E0E0"/>
<path d="M221.613 49.8682C220.282 49.0781 219.491 52.3677 224.035 52.5566C227.308 52.7198 229.189 50.4609 228.562 49.5333C227.462 48.0645 225.787 52.7456 221.613 49.8682Z" fill="#E0E0E0"/>
<path d="M269.024 103.232C254.56 119.844 268.028 146.178 289.887 145.963C309.487 145.963 319.021 122.489 308.568 106.84C300.237 94.3684 278.824 91.8432 269.024 103.232ZM270.192 124.344C267.684 117.731 267.616 110.189 270.527 104.074C280.173 93.8187 297.403 96.1377 305.631 105.912C302.702 105.5 297.677 105.165 295.496 105.577C291.433 106.436 292.258 108.24 291.897 113.204C288.909 113.009 285.909 113.064 282.93 113.367C280.147 113.599 280.259 115.815 280.078 118.813C278.182 118.585 276.263 118.643 274.384 118.985C271.043 119.732 270.192 119.912 270.192 124.344ZM301.611 109.683C300.366 135.897 301.199 136.309 299.095 136.077C298.012 135.991 296.415 135.57 294.242 135.149C293.065 134.9 292.902 134.402 292.979 133.432C293.237 124.628 293.572 113.067 293.907 109.133C293.984 108.377 294.07 107.372 296.415 107.372C300.769 107.252 301.774 107.175 301.611 109.683ZM287.791 130.039C287.602 132.117 287.791 133.526 282.509 132.049C281.59 131.8 281.504 130.966 281.504 129.962C281.925 116.056 281.736 115.3 283.686 115.3C286.95 115.214 288.04 115.128 288.04 116.554C288.04 117.98 288.204 125.435 287.791 130.039ZM271.704 126.603C271.704 120.531 271.644 121.072 275.389 121.072C277.622 121.184 276.9 122.334 276.9 128.441C276.806 130.211 276.789 130.511 272.709 129.695C271.704 129.627 271.704 127.617 271.704 126.612V126.603ZM274.805 131.877C277.321 132.126 277.381 132.04 279.829 131.207C279.826 131.74 280.008 132.257 280.345 132.669C280.682 133.082 281.153 133.364 281.676 133.466C287.07 135.055 288.547 134.411 291.304 133.303C291.304 134.729 291.227 136.146 293.881 136.738C301.414 138.456 301.001 138.156 307.28 135.063C304.334 141.007 285.927 143.996 274.805 131.886V131.877Z" fill="#E0E0E0"/>
<path d="M224.369 139.006C225.632 139.762 230.571 141.102 233.25 141.436C234.513 141.6 234.968 140.432 233.165 139.925C231.576 139.427 226.465 137.666 224.704 137.494C224.034 137.417 223.287 138.164 224.369 139.006Z" fill="#E0E0E0"/>
<path d="M246.993 39.063C245.138 38.5133 199.753 25.7843 198.156 25.4064C196.558 25.0284 195.639 26.2653 197.735 27.0039C199.83 27.7426 244.494 40.1023 246.821 40.6606C249.149 41.2189 248.823 39.6127 246.993 39.063Z" fill="#E0E0E0"/>
<path d="M215.661 45.6251C212.646 43.0484 208.206 40.0164 205.44 40.3514C202.674 40.6864 200.166 44.5343 199.496 48.6399C199.41 49.4988 200.836 49.8166 201.506 47.4718C202.425 44.0361 203.765 42.4386 205.44 42.0263C207.708 41.5195 213.479 45.711 214.991 47.1797C216.503 48.6485 217.422 47.111 215.661 45.6251Z" fill="#E0E0E0"/>
<path d="M200.501 23.5685C200.747 23.4943 200.975 23.372 201.173 23.2087C201.371 23.0454 201.534 22.8443 201.654 22.6172C201.773 22.3901 201.846 22.1416 201.868 21.886C201.891 21.6304 201.862 21.3729 201.784 21.1285C201.706 20.8841 201.58 20.6576 201.414 20.4624C201.247 20.2671 201.044 20.1068 200.815 19.991C200.586 19.8752 200.336 19.806 200.08 19.7876C199.824 19.7692 199.567 19.8019 199.324 19.8838C198.996 19.9582 198.692 20.117 198.443 20.3444C198.195 20.5718 198.01 20.86 197.906 21.1807C197.803 21.5015 197.785 21.8436 197.854 22.1734C197.923 22.5032 198.076 22.8094 198.3 23.0618C198.568 23.3655 198.924 23.5777 199.319 23.6685C199.714 23.7594 200.127 23.7245 200.501 23.5685Z" fill="#E0E0E0"/>
<path d="M232.83 39.6129C232.246 38.608 231.31 38.1613 229.815 39.192C228.321 40.2227 227.471 41.2878 227.806 41.7687C228.398 42.5246 229.523 41.6914 230.382 40.7638C230.297 42.1179 230.099 43.4625 229.79 44.7835C229.463 45.7884 231.782 47.5063 232.057 41.6055C232.174 41.9362 232.342 42.2463 232.555 42.5246C233.062 43.2804 234.067 43.0313 233.981 42.1896C233.745 41.2722 233.356 40.4011 232.83 39.6129Z" fill="#E0E0E0"/>
<path d="M213.9 27.339C216.837 27.5881 217.087 23.2849 213.9 23.2334C213.356 23.2334 212.833 23.4497 212.448 23.8346C212.063 24.2196 211.847 24.7418 211.847 25.2862C211.847 25.8306 212.063 26.3528 212.448 26.7377C212.833 27.1227 213.356 27.339 213.9 27.339Z" fill="#E0E0E0"/>
<path d="M209.21 23.2332C209.21 20.6565 204.77 20.4675 204.77 23.3191C204.77 26.1707 209.296 26.4198 209.21 23.2332Z" fill="#E0E0E0"/>
<path d="M327.997 78.1006C326.159 77.3533 322.302 76.3828 320.713 76.0048C317.278 74.9999 313.421 73.7459 312.33 73.4968C311.239 73.2477 310.913 74.6649 312.416 75.4208C313.919 76.1766 325.652 79.4405 327.25 79.8613C328.847 80.2822 330.178 78.9423 327.997 78.1006Z" fill="#E0E0E0"/>
<path d="M334.198 51.5518C332.017 50.9591 327.92 49.791 325.068 49.1211C322.217 48.4511 322.217 49.98 323.35 50.3751C324.484 50.7702 331.888 52.8487 333.992 53.2266C336.097 53.6046 336.38 52.1358 334.198 51.5518Z" fill="#E0E0E0"/>
<path d="M326.992 58.8353C330.849 59.7544 332.524 59.9261 333.005 59.5912C334.182 58.7323 332.146 58.1654 327.061 57.0144C325.635 56.6022 322.122 55.5972 322.706 57.1003C323.059 57.9163 325.232 58.4145 326.992 58.8353Z" fill="#E0E0E0"/>
<path d="M307.143 34.2103C310.493 34.5453 310.828 29.4348 307.143 29.4348C304.128 29.4348 303.87 33.8753 307.143 34.2103Z" fill="#E0E0E0"/>
<path d="M334.542 68.5495C330.596 67.1955 326.583 66.0487 322.517 65.1139C319.752 64.6071 319.829 65.7838 321.512 66.4538C323.196 67.1237 332.678 69.8035 334.396 69.9667C336.114 70.1299 336.122 69.0563 334.542 68.5495Z" fill="#E0E0E0"/>
<path d="M340.228 46.484C338.39 45.8913 292.06 32.5782 290.05 32.5782C288.796 32.5782 289.131 33.3255 290.05 33.9181C291.768 34.9231 336.964 47.2312 339.06 47.8239C341.155 48.4165 342.16 47.0251 340.228 46.484Z" fill="#E0E0E0"/>
<path d="M338.055 34.2877C329.002 30.4398 301.981 22.8986 294.912 21.5587C287.371 20.1329 285.524 24.0667 284.691 27.6741C284.185 29.7698 283.832 36.2632 283.515 43.2547C276.514 40.9185 277.502 41.8976 274.556 35.4644C271.541 28.679 270.871 27.9232 266.173 26.1624C260.814 24.1526 245.319 19.6261 240.964 18.8789C235.811 18.02 232.753 19.5488 231.576 23.4826C198.079 14.0346 193.183 13.0984 191.955 21.9795C191.448 25.8274 191.199 54.9788 191.448 59.2562C191.706 62.6918 192.711 63.2759 194.806 64.1949C198.795 65.8766 202.875 67.3305 207.029 68.5496C207.286 71.6503 207.45 74.562 207.621 76.0049C203.267 78.1866 200.166 82.713 200.415 90.0825C191.955 89.1634 187.179 97.5378 190.778 105.998C193.046 111.358 198.989 115.386 212.139 119.32C237.048 126.784 245.353 131.061 250.344 125.77C253.865 126.775 256.459 127.617 258.469 128.201C264.12 147.741 283.497 157.576 304.962 148.471C305.211 148.892 307.976 152.577 309.574 154.483C309.316 156.914 310.209 159.56 312.331 162.274C316.797 167.977 324.399 179.28 332.352 178.945C340.306 178.61 343.664 171.155 337.884 162.781C334.499 158.065 324.141 146.53 318.369 146.53C317.246 144.968 315.984 143.51 314.599 142.175C325.489 132.375 330.059 116.039 320.791 100.621C321.135 99.2814 322.509 92.9942 323.145 89.7303C339.266 94.6089 341.096 91.8432 342.994 79.4234C344.841 67.2784 345.09 51.6978 345.425 45.7541C345.932 38.9859 344.755 37.2252 338.055 34.2877ZM240.629 20.9746C244.812 21.7219 260.728 26.6692 266.01 28.3441C273.044 30.603 272.022 41.8289 278.155 43.6756C280.165 44.2596 282.175 45.0155 283.351 45.3934C283.145 48.829 283.351 48.4941 282.596 61.2231C264.558 55.0819 264.077 55.5285 257.885 62.9409C256.167 65.0452 256.476 65.26 251.512 63.6109C253.281 28.2839 256.528 30.6202 233.586 24.101C234.428 21.2237 236.627 20.2188 240.629 20.9746ZM206.694 60.0893C206.694 61.4292 206.78 63.86 206.951 66.4624C203.113 65.2885 199.337 63.9181 195.64 62.3569C193.922 61.601 193.544 60.0893 193.458 57.7445C193.295 53.2267 192.96 33.2828 193.63 23.1477C194.128 16.4482 198.319 17.3672 200.999 17.8739C213.565 20.1329 237.073 27.322 244.142 29.4349C252.886 32.0116 250.55 35.9282 249.424 62.9323C225.263 54.4463 222.171 53.1494 218.426 52.2904C210.464 50.5383 206.616 54.2144 206.694 60.0893ZM249.089 124.258C244.443 128.905 236.386 124.181 212.809 117.473C203.095 114.716 194.97 110.275 192.711 105.328C189.696 98.7145 192.96 92.2641 199.745 92.2641C200.75 92.2641 202.674 92.934 202.597 91.3365C202.425 84.0529 204.1 79.9473 209.21 77.8516C220.376 73.2478 232.873 83.2112 232.667 95.777C232.667 95.9312 232.702 96.0833 232.769 96.2222C232.836 96.3611 232.933 96.4832 233.054 96.5796C233.174 96.676 233.314 96.7443 233.464 96.7793C233.615 96.8143 233.771 96.8152 233.921 96.7819C241.969 95.0641 246.487 103.825 243.309 108.678C243.228 108.817 243.181 108.974 243.172 109.135C243.163 109.296 243.193 109.457 243.258 109.605C243.323 109.752 243.423 109.882 243.548 109.984C243.673 110.086 243.821 110.156 243.979 110.19C249.699 111.048 253.109 120.076 249.089 124.258ZM258.048 125.976C256.794 125.555 255.368 125.117 253.607 124.636C257.043 119.363 254.947 109.897 248.669 107.132C249.837 96.5758 242.467 92.2211 236.644 91.8003C235.141 78.9166 225.332 73.8748 215.369 74.1239C213.421 74.2129 211.5 74.6071 209.674 75.292C209.416 72.6122 208.747 64.1262 208.669 62.563C208.412 55.4426 211.246 53.115 217.963 54.3518C223.193 55.2795 224.971 56.7482 251.555 65.9986C255.239 67.1668 256.708 67.4244 259.345 64.487C266.01 56.7568 263.193 57.066 298.717 69.1766C306.447 71.7533 305.649 74.1325 308.44 89.9536C294.199 83.34 273.921 86.6898 264.292 99.7538C257.73 106.204 256.072 116.915 258.048 126.019V125.976ZM310.158 152.036C309.239 150.773 308.148 149.347 307.478 148.428C307.813 148.265 308.148 148.093 308.569 147.844C309.074 149.013 309.884 150.024 310.914 150.773C310.596 151.166 310.342 151.607 310.158 152.079V152.036ZM318.446 148.677C324.459 149.768 331.33 157.979 336.295 164.138C343.578 174.608 333.34 181.23 324.897 173.775C321.607 170.863 316.522 164.558 314.092 161.209C309.488 155.652 311.549 150.103 318.446 148.694V148.677ZM316.024 147.088C315.396 147.23 314.799 147.486 314.264 147.844C313.956 146.864 313.407 145.978 312.666 145.267C313.092 145.004 313.487 144.693 313.843 144.34C314.848 145.628 315.518 146.461 316.024 147.131V147.088ZM278.997 148.342C260.393 142.064 252.998 115.206 266.113 100.596C278.043 87.2738 302.084 88.8542 311.635 103.782C327.061 127.763 306.722 157.18 278.997 148.385V148.342ZM319.288 98.3366C316.99 95.2447 314.062 92.6746 310.699 90.7953C310.536 89.7045 310.201 87.6088 309.78 85.3499C312.881 86.3548 316.9 87.8579 321.169 89.2064C320.8 91.6714 319.872 95.8629 319.288 98.3795V98.3366ZM343.338 47.4806C343.174 52.969 342.376 86.5781 337.557 89.2064C334.791 90.6236 331.107 90.7954 309.411 83.194C306.739 67.8281 308.088 70.0956 284.502 62.0047C285.464 45.7456 285.937 31.5564 286.684 28.241C287.44 24.7195 289.029 22.7096 294.474 23.7145C301.423 25.0544 328.487 32.8533 337.42 36.4522C343.913 38.9 343.578 41.4081 343.329 47.5235L343.338 47.4806Z" fill="#E0E0E0"/>
<path d="M302.282 29.7697C302.196 26.7549 297.343 26.5831 297.343 29.847C297.343 33.1109 302.367 33.4544 302.282 29.7697Z" fill="#E0E0E0"/>
<path d="M293.237 30.5169C296.002 29.658 294.912 25.0714 291.897 25.9991C291.58 26.0692 291.282 26.2037 291.019 26.3943C290.757 26.5848 290.537 26.8273 290.373 27.1066C290.208 27.3859 290.103 27.6961 290.063 28.0178C290.024 28.3395 290.051 28.6659 290.143 28.9767C290.236 29.2875 290.391 29.5759 290.599 29.8241C290.808 30.0724 291.065 30.275 291.355 30.4195C291.645 30.564 291.962 30.6472 292.286 30.6639C292.609 30.6807 292.933 30.6307 293.237 30.5169Z" fill="#E0E0E0"/>
<path d="M317.106 59.5912C317.612 58.7323 317.965 54.7298 317.527 52.299C317.363 51.2082 317.192 50.461 314.95 49.8683C313.679 39.716 290.041 39.7332 288.641 48.6143C288.478 49.5334 287.637 56.1556 288.727 58.5863C291.184 63.86 303.415 65.1655 306.567 63.19C307.68 63.912 308.943 64.3703 310.26 64.5299C312.253 64.5815 316.358 60.9311 317.106 59.5912ZM308.31 44.9897C306.472 46.2437 304.291 48.5886 304.016 48.6744C302.676 47.8155 299.326 45.5738 297.394 43.9848C301.059 43.3432 304.83 43.6992 308.31 45.0155V44.9897ZM290.05 57.7188C289.552 56.6279 289.552 53.785 289.715 51.526C292.644 55.1249 298.012 57.2979 305.175 56.6795C305.261 57.6844 305.347 59.4452 305.433 61.5409C298.931 63.7827 291.141 60.0121 290.05 57.7445V57.7188ZM295.41 44.483C297.885 46.5809 300.518 48.4848 303.286 50.1775L305.717 55.1249C296.75 55.9838 282.629 48.6229 295.41 44.5087V44.483ZM310.071 45.8229C310.797 46.1594 311.442 46.6481 311.962 47.2557C312.482 47.8633 312.865 48.5756 313.086 49.3444C311.368 49.3444 308.396 49.0953 306.052 49.0953C307.29 47.8935 308.636 46.8068 310.071 45.8486V45.8229ZM309.736 56.0439C308.877 55.4598 305.717 51.526 306.722 51.1825C307.726 50.8389 314.933 51.1825 315.603 51.9383C316.436 52.7199 310.827 56.7396 309.736 56.0697V56.0439ZM310.741 62.6661C310.818 61.1011 310.763 59.5324 310.578 57.9764C312.634 57.2257 314.495 56.0222 316.024 54.4549C316.024 56.1727 315.938 58.2255 315.603 58.7495C314.347 60.4585 312.673 61.816 310.741 62.6919V62.6661Z" fill="#E0E0E0"/>
</g>
</svg>
